<?xml version="1.0" standalone="no"?>
<!DOCTYPE svg PUBLIC "-//W3C//DTD SVG 20010904//EN"
 "http://www.w3.org/TR/2001/REC-SVG-20010904/DTD/svg10.dtd">
<svg version="1.0" xmlns="http://www.w3.org/2000/svg"
 width="624.000000pt" height="624.000000pt" viewBox="0 0 624.000000 624.000000"
 preserveAspectRatio="xMidYMid meet">

<g transform="translate(0.000000,624.000000) scale(0.100000,-0.100000)"
fill="#000000" stroke="none">
<path d="M3901 5919 c-70 -36 -227 -199 -310 -324 -40 -60 -110 -185 -155
-277 l-81 -168 -85 -36 c-418 -179 -761 -440 -1067 -811 -329 -399 -513 -852
-548 -1354 l-7 -96 -54 -43 c-170 -135 -384 -417 -466 -613 -37 -85 -71 -242
-63 -284 7 -38 44 -73 149 -138 159 -99 490 -227 671 -261 169 -30 154 -22
250 -150 154 -205 345 -383 581 -540 201 -134 391 -218 594 -261 120 -25 391
-25 510 1 226 49 431 158 626 332 40 35 76 64 82 64 5 0 37 -48 70 -108 113
-200 253 -367 438 -521 87 -72 206 -151 229 -151 9 0 10 14 6 101 -1 16 -9 30
-23 36 -92 42 -324 260 -430 403 -99 134 -188 293 -188 337 0 8 27 44 60 80
83 89 93 105 81 136 -12 31 -43 49 -68 40 -10 -4 -42 -34 -72 -67 -358 -401
-698 -586 -1076 -588 -144 -1 -236 13 -374 58 -268 88 -567 284 -786 516 -187
198 -311 375 -415 591 -158 327 -224 614 -223 967 1 360 74 668 234 982 298
584 838 1065 1444 1286 246 90 458 126 740 126 269 1 445 -26 681 -105 127
-42 127 -41 109 -109 -56 -201 -8 -476 100 -584 39 -39 125 -86 158 -86 10 0
26 -4 36 -10 26 -14 133 6 190 34 136 70 215 238 214 461 0 216 -68 362 -202
434 -73 38 -139 48 -223 31 -75 -14 -106 -30 -159 -77 l-40 -36 -117 38 c-64
21 -130 43 -145 48 -20 7 -49 42 -103 124 -129 196 -407 465 -565 548 -90 47
-149 54 -208 24z m166 -128 c77 -39 219 -162 356 -310 90 -97 171 -205 157
-209 -6 -2 -66 4 -133 13 -238 34 -601 9 -842 -59 -49 -14 -91 -23 -94 -20 -3
3 14 44 38 92 109 222 263 425 384 505 42 28 59 27 134 -12z m1345 -674 c42
-23 75 -66 110 -142 20 -44 23 -65 23 -185 0 -116 -3 -145 -24 -204 -45 -131
-147 -199 -264 -177 -94 17 -137 62 -179 186 -32 98 -32 270 1 365 27 78 60
129 100 153 68 40 165 42 233 4z m-3757 -2514 c8 -126 55 -372 95 -499 37
-114 115 -307 140 -344 20 -29 70 -126 70 -136 0 -16 -106 8 -255 57 -159 52
-437 182 -500 233 l-29 24 10 63 c30 172 163 398 356 604 49 52 93 95 98 95 4
0 11 -44 15 -97z"/>
<path d="M4325 3806 c-60 -28 -87 -56 -114 -116 -71 -157 43 -338 213 -340 68
0 118 21 172 75 40 40 54 62 64 104 48 199 -151 364 -335 277z"/>
<path d="M4117 2933 c-4 -3 -7 -19 -7 -34 0 -45 -42 -84 -110 -103 -66 -19
-80 -35 -80 -91 0 -52 -15 -73 -60 -86 -42 -13 -57 -34 -39 -55 13 -16 62 -18
89 -4 15 8 35 -3 112 -60 209 -158 402 -214 455 -134 39 61 -32 182 -211 356
-107 105 -109 107 -97 136 15 36 0 82 -27 82 -10 0 -22 -3 -25 -7z m137 -293
c98 -102 151 -171 162 -213 6 -26 5 -27 -43 -27 -61 0 -173 52 -288 135 -107
77 -110 79 -107 121 4 52 17 71 54 79 18 4 42 14 52 21 28 19 60 -2 170 -116z"/>
<path d="M3185 2396 c-88 -40 -138 -119 -138 -216 0 -74 26 -132 80 -180 119
-104 302 -68 375 74 29 56 30 155 1 211 -62 118 -200 166 -318 111z"/>
<path d="M5130 2093 c-166 -60 -250 -220 -250 -478 1 -224 95 -401 243 -452
77 -26 189 -24 248 5 108 53 184 160 214 301 19 92 19 257 0 339 -29 123 -102
224 -197 273 -57 30 -192 36 -258 12z m175 -104 c57 -16 126 -89 155 -164 31
-80 34 -278 7 -367 -41 -131 -119 -198 -229 -198 -32 0 -73 6 -91 13 -51 22
-102 86 -128 163 -33 97 -34 275 -1 382 44 143 154 208 287 171z"/>
</g>
</svg>
